<?xml version="1.0" encoding="utf-8"?>
<!-- Generator: Adobe Illustrator 23.0.4, SVG Export Plug-In . SVG Version: 6.00 Build 0)  -->
<svg version="1.1" id="Layer_1" xmlns="http://www.w3.org/2000/svg" xmlns:xlink="http://www.w3.org/1999/xlink" x="0px" y="0px"
	 viewBox="0 0 388.5 171" style="enable-background:new 0 0 388.5 171;" xml:space="preserve">
<style type="text/css">
	.st0{fill:#C69963;}
</style>
<g>
	<g>
		<path class="st0" d="M90.33,139.49c-0.22,0-0.33-0.14-0.33-0.42l0.08-57.22c0-0.28,0.14-0.42,0.41-0.42h9.12
			c0.27,0,0.41,0.14,0.41,0.42l-0.08,47.38h16.92c0.27,0,0.41,0.14,0.41,0.42v9.43c0,0.28-0.14,0.42-0.41,0.42H90.33z"/>
		<path class="st0" d="M136.65,140.33c-2.96,0-5.65-0.76-8.09-2.29c-2.44-1.53-4.39-3.56-5.87-6.09c-1.48-2.53-2.22-5.32-2.22-8.38
			l0.08-26.44c0-3.06,0.73-5.84,2.18-8.34c1.45-2.5,3.41-4.5,5.87-6c2.46-1.5,5.15-2.25,8.05-2.25c2.96,0,5.64,0.75,8.05,2.25
			c2.41,1.5,4.34,3.5,5.79,6c1.45,2.5,2.18,5.28,2.18,8.34l0.08,26.44c0,3.06-0.72,5.85-2.18,8.38c-1.45,2.53-3.4,4.56-5.83,6.09
			C142.3,139.56,139.61,140.33,136.65,140.33z M136.65,130.23c1.64,0,3.08-0.68,4.31-2.04c1.23-1.36,1.85-2.9,1.85-4.63l-0.08-26.44
			c0-1.83-0.57-3.39-1.72-4.67s-2.6-1.92-4.35-1.92c-1.7,0-3.15,0.63-4.35,1.88c-1.21,1.25-1.81,2.82-1.81,4.71v26.44
			c0,1.83,0.6,3.41,1.81,4.71C133.5,129.58,134.95,130.23,136.65,130.23z"/>
		<path class="st0" d="M159.32,139.49c-0.22,0-0.33-0.14-0.33-0.42l0.16-57.3c0-0.22,0.11-0.33,0.33-0.33h16.59
			c2.96,0,5.68,0.74,8.17,2.21c2.49,1.47,4.48,3.45,5.95,5.92c1.48,2.47,2.22,5.27,2.22,8.38c0,2.06-0.3,3.91-0.9,5.55
			c-0.6,1.64-1.31,3.03-2.14,4.17c-0.82,1.14-1.56,1.99-2.22,2.54c2.96,3.34,4.43,7.26,4.43,11.76l0.08,17.1
			c0,0.28-0.14,0.42-0.41,0.42h-9.28c-0.22,0-0.33-0.08-0.33-0.25v-17.27c0-2-0.7-3.74-2.09-5.21c-1.4-1.47-3.11-2.21-5.13-2.21
			h-5.42l-0.08,24.52c0,0.28-0.11,0.42-0.33,0.42H159.32z M169.01,104.54h7.06c1.7,0,3.2-0.64,4.52-1.92
			c1.31-1.28,1.97-2.84,1.97-4.67c0-1.78-0.64-3.31-1.93-4.59c-1.29-1.28-2.81-1.92-4.56-1.92h-7.06V104.54z"/>
		<path class="st0" d="M198.9,139.49c-0.22,0-0.33-0.14-0.33-0.42l0.08-57.3c0-0.22,0.11-0.33,0.33-0.33h26.36
			c0.22,0,0.33,0.14,0.33,0.42v9.34c0,0.22-0.11,0.33-0.33,0.33h-16.84v13.01h16.84c0.22,0,0.33,0.11,0.33,0.33l0.08,9.43
			c0,0.22-0.11,0.33-0.33,0.33h-16.92v14.6h16.92c0.22,0,0.33,0.14,0.33,0.42v9.51c0,0.22-0.11,0.33-0.33,0.33H198.9z"/>
		<path class="st0" d="M233.4,139.49c-0.22,0-0.33-0.14-0.33-0.42l0.16-57.3c0-0.22,0.11-0.33,0.33-0.33h10.02
			c0.22,0,0.41,0.11,0.58,0.33l7.47,11.01l7.47-11.01c0.16-0.22,0.36-0.33,0.58-0.33h10.1c0.22,0,0.33,0.11,0.33,0.33l0.17,57.3
			c0,0.28-0.11,0.42-0.33,0.42h-9.28c-0.22,0-0.33-0.14-0.33-0.42l-0.08-42.54l-8.62,12.68l-8.54-12.68l-0.08,42.54
			c0,0.28-0.11,0.42-0.33,0.42H233.4z"/>
		<path class="st0" d="M289.74,139.49c-0.28,0-0.41-0.14-0.41-0.42l0.08-57.3c0-0.22,0.11-0.33,0.33-0.33h9.2
			c0.22,0,0.33,0.11,0.33,0.33l0.08,57.3c0,0.28-0.11,0.42-0.33,0.42H289.74z"/>
		<path class="st0" d="M306.98,139.49c-0.28,0-0.41-0.14-0.41-0.42l0.16-57.3c0-0.22,0.11-0.33,0.33-0.33h15.77
			c5.04,0,9.02,1.56,11.95,4.67c2.93,3.12,4.39,7.34,4.39,12.68c0,3.95-0.77,7.37-2.3,10.26c-1.53,2.89-3.53,5.12-6,6.67
			c-2.46,1.56-5.15,2.34-8.05,2.34h-6.24v21.02c0,0.28-0.14,0.42-0.41,0.42H306.98z M316.59,107.96h6.24c1.75,0,3.27-0.85,4.56-2.54
			c1.29-1.7,1.93-3.91,1.93-6.63c0-2.17-0.58-3.95-1.72-5.34c-1.15-1.39-2.74-2.08-4.76-2.08l-6.24,0.08V107.96z"/>
		<path class="st0" d="M358.73,140.33c-2.96,0-5.65-0.76-8.09-2.29c-2.44-1.53-4.38-3.56-5.83-6.09c-1.45-2.53-2.18-5.32-2.18-8.38
			v-3.84c0-0.28,0.14-0.42,0.41-0.42h9.2c0.22,0,0.33,0.14,0.33,0.42v3.84c0,1.83,0.6,3.41,1.81,4.71c1.2,1.31,2.66,1.96,4.35,1.96
			c1.7,0,3.15-0.67,4.35-2c1.2-1.33,1.81-2.89,1.81-4.67c0-2.06-1.31-3.84-3.94-5.34c-0.88-0.5-2.25-1.28-4.11-2.34
			c-1.86-1.06-3.61-2.06-5.26-3c-3.01-1.78-5.24-4.02-6.69-6.71c-1.45-2.7-2.18-5.74-2.18-9.13c0-3.11,0.74-5.91,2.22-8.38
			c1.48-2.47,3.44-4.43,5.87-5.88c2.44-1.45,5.08-2.17,7.93-2.17c2.9,0,5.57,0.74,8.01,2.21c2.44,1.47,4.38,3.45,5.83,5.92
			c1.45,2.47,2.18,5.24,2.18,8.3v6.84c0,0.22-0.11,0.33-0.33,0.33h-9.2c-0.22,0-0.33-0.11-0.33-0.33l-0.08-6.84
			c0-1.95-0.6-3.53-1.81-4.75c-1.21-1.22-2.63-1.83-4.27-1.83c-1.7,0-3.15,0.65-4.35,1.96c-1.21,1.31-1.81,2.85-1.81,4.63
			c0,1.83,0.38,3.37,1.15,4.59c0.77,1.22,2.16,2.39,4.19,3.5c0.27,0.17,0.81,0.46,1.6,0.88c0.79,0.42,1.66,0.89,2.59,1.42
			c0.93,0.53,1.77,0.99,2.5,1.38c0.74,0.39,1.19,0.64,1.36,0.75c2.74,1.56,4.9,3.46,6.49,5.71c1.59,2.25,2.38,5.02,2.38,8.3
			c0,3.17-0.73,6.02-2.18,8.55c-1.45,2.53-3.4,4.53-5.83,6.01C364.38,139.59,361.68,140.33,358.73,140.33z"/>
	</g>
	<path class="st0" d="M372,152.25c-40.72,0-299.01,0-339.83,0c0-27.3,0-33.66,0-61.5c-1.82,1.12-3.14,1.93-4.66,2.87
		c-3.89-6.09-7.72-12.07-11.63-18.2c0.66-0.46,1.23-0.87,1.82-1.25c5.73-3.66,11.43-7.37,17.22-10.94c1.41-0.87,1.88-1.84,1.85-3.47
		c-0.1-6.08-0.04-12.17-0.04-18.25c0-0.71,0-1.42,0-2.29c10.19,0,20.21,0,30.35,0c0.07,0.98,0.13,1.93,0.22,3.24
		c0.76-0.47,1.33-0.83,1.9-1.19c10.03-6.4,20.07-12.79,30.07-19.24c1.11-0.71,1.85-0.7,2.95,0c23.03,14.75,46.08,29.46,69.12,44.19
		l-3.87,4.01c0,0-42.82-27.33-64.2-41.04c-1.88-1.21-3.32-1.13-5.16,0.06c-11.37,7.35-22.79,14.6-34.2,21.87
		c-0.58,0.37-1.2,0.7-2.16,1.26c0-2.35-0.05-4.35,0.02-6.34c0.04-1.21-0.43-1.6-1.6-1.58c-3.86,0.05-7.72,0.02-11.58,0.01
		c-2.07,0-4.14,0-6.4,0c0,0.96,0,1.67,0,2.38c0,5.23-0.07,10.47,0.04,15.7c0.04,1.75-0.45,2.82-2.01,3.78
		c-5.62,3.44-11.14,7.06-16.84,10.71c1.96,3.07,3.84,6.01,5.8,9.07c2.8-1.76,5.42-3.41,8.44-5.31c0,29.33,0,37.19,0,66.03
		c38.98,0,295.41,0,334.38,0L372,152.25z"/>
	<rect x="46" y="84.5" class="st0" width="18.01" height="15"/>
</g>
</svg>
