<?xml version="1.0" encoding="utf-8"?>
<!-- Generator: Adobe Illustrator 23.0.4, SVG Export Plug-In . SVG Version: 6.00 Build 0)  -->
<svg version="1.1" id="Layer_1" xmlns="http://www.w3.org/2000/svg" xmlns:xlink="http://www.w3.org/1999/xlink" x="0px" y="0px"
	 viewBox="0 0 332.48 106.5" style="enable-background:new 0 0 332.48 106.5;" xml:space="preserve">
<style type="text/css">
	.st0{fill:#231F20;}
	.st1{fill:#FF7902;stroke:#FF7902;stroke-miterlimit:10;}
</style>
<g>
	<path class="st0" d="M170.34,75.23c-0.64,0.01-2.16-0.05-2.17-1c-0.05-5.66,0.67-11.33,1.39-16.93c1.07-8.72,2.46-17.45,4.3-26.05
		c-1.78,0.21-3.87,0.73-5.46,0.75c-0.57,0-1.02-0.18-1.03-0.82c-0.01-1.84,6.92-2.03,6.92-2.03c0.67-3.12,2.17-6.06,6.05-6.09
		c0.51,0,1.02,0.37,1.03,0.95c0,0.19-0.06,0.32-0.12,0.51c-0.62,1.34-0.87,2.93-1.17,4.4c12.85-0.11,22.18,5.98,22.3,19.72
		c0.12,14.25-20.03,23.76-28.23,23.83C174.14,72.46,173.97,75.19,170.34,75.23z M198.74,48.28c-0.09-10.75-8.92-17.16-19.1-17.2
		c-1.52,7.96-2.86,15.99-4,24.01c-0.6,4.46-1.33,8.98-1.29,13.49C181.54,68.52,198.84,60.74,198.74,48.28z"/>
	<path class="st0" d="M232.01,64.16c-2.33,3.33-6.92,9.15-11.37,9.19c-4.2,0.03-4.76-6.83-4.79-9.82c-1.63,2.62-5.46,8.44-8.83,8.47
		c-3.12,0.03-3.85-4.17-3.87-6.58c-0.06-6.68,6.78-18.37,14.22-18.44c0.89-0.01,2.11,1.06,2.12,1.95c0,0.38-0.31,0.57-0.63,0.77
		c-2.28,1.35-4.37,2.83-6.19,4.76c-3.28,3.4-5.34,7.74-5.3,12.51c0,0.51,0.08,1.53,0.84,1.52c2.86-0.02,8.11-11.33,9.3-13.94
		c0.44-0.96,0.94-1.92,2.15-1.93c0.64-0.01,1.46,0.18,1.47,1.01c0.01,0.89-0.8,2.74-1.12,3.7c-0.68,2.17-0.91,4.84-0.9,7.07
		c0.01,1.34,0.12,6.23,2.09,6.22c2.99-0.02,7.71-6.36,9.41-8.66c0,0,0.88-1.6,1.77-1.6c0.76-0.01,1.02,0.5,1.03,1.2
		C233.39,62.3,232.45,63.52,232.01,64.16z"/>
	<path class="st0" d="M235.18,70.68l-0.06,0.19c-0.69,1.47-1.69,3.58-3.53,3.59c-1.84,0.02-2.18-2.4-2.2-3.8
		c-0.02-2.16,0.41-4.39,0.65-6.56c0.83-7.07,3.6-48.69,13.01-48.76c2.8-0.02,3.47,3.85,3.48,5.95c0.08,9.48-3.09,18.6-7.22,26.96
		c-1,2.04-2.13,3.96-3.13,5.94c-0.5,1.02-1.58,8.73-1.82,10.45c2.31-5.04,9.83-19.1,15.8-19.15c2.86-0.02,3.65,3.4,3.67,5.69
		l-1.08,15.97c0.01,1.21,0.09,2.86,1.74,2.85c3.94-0.03,8.03-6.24,10.22-9.56c0.38-0.58,0.82-1.41,1.51-1.41
		c0.76-0.01,0.96,0.63,0.96,1.26c0,0.38-0.25,0.7-0.37,1.02c-2.44,4.92-8.74,12.47-14.72,12.52c-3.37,0.03-3.42-5.89-3.44-8.68
		c-0.04-4.58,0.5-9.16,0.9-14.25c0-0.38-0.01-1.53-0.65-1.52C246.14,49.41,236.68,67.42,235.18,70.68z M235.76,48.67
		c3.76-6.96,8.49-19.21,8.42-27.1c0-0.57-0.03-2.99-0.79-2.98C239.46,18.62,235.98,44.34,235.76,48.67z"/>
	<path class="st0" d="M290.84,63.67c-2.33,3.33-6.92,9.15-11.37,9.19c-4.2,0.04-4.76-6.83-4.79-9.82c-1.63,2.62-5.46,8.44-8.83,8.47
		c-3.12,0.03-3.85-4.17-3.87-6.58c-0.06-6.68,6.78-18.37,14.22-18.44c0.89-0.01,2.11,1.06,2.12,1.95c0,0.38-0.31,0.57-0.63,0.77
		c-2.28,1.35-4.37,2.84-6.19,4.76c-3.28,3.4-5.34,7.74-5.3,12.51c0,0.51,0.08,1.53,0.84,1.52c2.86-0.02,8.11-11.32,9.3-13.94
		c0.44-0.96,0.94-1.92,2.15-1.93c0.64,0,1.46,0.18,1.47,1.01c0.01,0.89-0.8,2.74-1.12,3.7c-0.68,2.17-0.91,4.84-0.9,7.07
		c0.01,1.34,0.12,6.23,2.09,6.22c2.99-0.02,7.71-6.36,9.41-8.67c0,0,0.88-1.6,1.77-1.6c0.76-0.01,1.02,0.5,1.03,1.2
		C292.22,61.81,291.28,63.03,290.84,63.67z"/>
	<path class="st0" d="M289.8,90.83c-0.07-8.52,9.97-17,16.49-21.38c0.05-1.21,0.04-2.42,0.03-3.63c-0.03-3.31-0.12-6.55-0.27-9.86
		c-2.07,3.52-10.39,13.19-14.58,13.22c-2.86,0.02-3.46-2.77-3.48-5.06c-0.03-3.82,1.02-7.83,2.13-11.47
		c0.25-0.83,0.43-1.66,0.81-2.42c0.5-1.02,1.19-1.79,2.4-1.8c1.4-0.01,2.74,1.12,2.76,2.58c0.01,1.08-0.93,2.81-1.3,3.83
		c-0.87,2.23-2.61,7.72-2.59,10.01c0,0.38,0.01,1.34,0.65,1.33c1.02-0.01,3.67-2.7,4.42-3.47c3.41-3.53,6.17-7.68,9.19-11.59
		c0.57-0.7,1.26-1.79,2.28-1.8c0.45,0,0.89,0.18,1.28,0.44c1.02,0.69,1.06,5.52,1.08,7.05c0.09,11.38-0.18,24.55-6.33,34.27
		c-2.07,3.26-5.48,6.53-9.55,6.57C291.32,97.69,289.82,94.2,289.8,90.83z M292.6,90.94c0.01,1.59,0.48,4.07,2.51,4.05
		c2.04-0.02,3.99-2.39,5.12-3.86c3.27-4.48,5.23-13.4,5.76-18.94C300.62,76.56,292.53,83.43,292.6,90.94z"/>
</g>
<g>
	<path class="st0" d="M115.75,22.96l4.13-0.03l0.41,49.54l-4.13,0.03l-0.05-6.26l-0.14,0c-0.59,1.2-1.35,2.25-2.28,3.15
		s-1.96,1.66-3.08,2.26c-1.12,0.61-2.27,1.07-3.46,1.4c-1.19,0.33-2.36,0.5-3.51,0.51c-2.89,0.02-5.35-0.44-7.37-1.38
		c-2.03-0.95-3.7-2.25-5.02-3.91c-1.32-1.66-2.29-3.64-2.9-5.93c-0.62-2.29-0.93-4.74-0.96-7.35c-0.02-2.48,0.28-4.86,0.9-7.16
		c0.62-2.3,1.58-4.31,2.87-6.04c1.29-1.73,2.93-3.12,4.92-4.17c1.99-1.05,4.33-1.58,7.04-1.61c2.52-0.02,4.95,0.52,7.27,1.63
		s4.16,2.75,5.51,4.94L115.75,22.96z M116.01,54.54c-0.02-2.02-0.31-3.93-0.87-5.74c-0.57-1.81-1.37-3.38-2.41-4.73
		c-1.04-1.34-2.31-2.41-3.81-3.2c-1.5-0.79-3.19-1.18-5.07-1.16c-2.16,0.02-4.01,0.46-5.56,1.32c-1.55,0.86-2.83,2.03-3.82,3.51
		c-1,1.48-1.72,3.19-2.16,5.14c-0.44,1.95-0.61,4.05-0.5,6.3c0.02,2.25,0.34,4.23,0.98,5.94c0.63,1.71,1.51,3.16,2.62,4.35
		c1.11,1.18,2.4,2.08,3.88,2.69c1.47,0.61,3.08,0.9,4.82,0.89c1.93-0.02,3.64-0.42,5.15-1.21c1.51-0.79,2.76-1.87,3.76-3.23
		c1-1.36,1.75-2.97,2.27-4.84C115.78,58.71,116.03,56.7,116.01,54.54z"/>
	<path class="st0" d="M124.83,55.57c0.02,1.93,0.28,3.75,0.8,5.46c0.52,1.72,1.28,3.2,2.27,4.45c1,1.25,2.25,2.25,3.77,3
		c1.52,0.74,3.27,1.11,5.24,1.09c2.71-0.02,5.02-0.75,6.93-2.19c1.92-1.44,3.18-3.47,3.8-6.09l4.61-0.04
		c-0.49,1.7-1.14,3.28-1.96,4.73s-1.84,2.72-3.06,3.81c-1.23,1.09-2.69,1.94-4.38,2.55c-1.69,0.61-3.66,0.93-5.91,0.94
		c-2.84,0.02-5.3-0.44-7.38-1.38c-2.07-0.95-3.78-2.25-5.12-3.91c-1.34-1.66-2.35-3.63-3.01-5.89c-0.66-2.27-1-4.71-1.02-7.32
		c-0.02-2.61,0.34-5.07,1.07-7.37c0.74-2.3,1.8-4.32,3.18-6.05c1.38-1.73,3.08-3.1,5.09-4.1c2.01-1,4.3-1.51,6.87-1.54
		c4.91-0.04,8.77,1.61,11.6,4.96c2.83,3.35,4.24,8.23,4.25,14.66L124.83,55.57z M148.06,51.94c-0.01-1.74-0.27-3.38-0.76-4.91
		c-0.49-1.53-1.22-2.86-2.17-3.97c-0.95-1.12-2.14-2-3.57-2.65c-1.43-0.65-3.06-0.97-4.89-0.96c-1.83,0.02-3.45,0.37-4.84,1.07
		c-1.39,0.7-2.58,1.63-3.55,2.78c-0.98,1.16-1.76,2.49-2.34,4.01c-0.58,1.52-0.96,3.13-1.13,4.83L148.06,51.94z"/>
</g>
<g>
	<path class="st1" d="M74.11,63.64c6.6-0.64,11.62-4.72,11.58-9.58c-0.04-4.42-4.29-8.1-10.02-9.13l-0.1-0.11
		C72.21,33.52,61.44,25.3,48.74,25.4c-12.76,0.11-23.44,8.59-26.56,20.04l-0.24-0.07c-5.72,1.13-9.91,4.88-9.87,9.3
		c0.04,4.86,5.18,8.83,11.8,9.36l0.1-0.05c4.5,9.12,14.12,15.38,25.21,15.29C60.25,79.17,69.75,72.79,74.11,63.64L74.11,63.64z
		 M72.02,52.14c0.1,11.87-10.19,21.58-22.97,21.68c-12.79,0.11-23.23-9.43-23.33-21.3S35.9,30.95,48.69,30.84
		C61.48,30.74,71.92,40.27,72.02,52.14z"/>
	
		<ellipse transform="matrix(1 -8.310326e-03 8.310326e-03 1 -0.1864 0.4056)" class="st1" cx="48.71" cy="22.64" rx="4.28" ry="6.88"/>
	<ellipse transform="matrix(0.7012 -0.713 0.713 0.7012 -1.3084 46.6949)" class="st1" cx="55.06" cy="24.91" rx="6.88" ry="4.28"/>
	<ellipse transform="matrix(0.7012 -0.713 0.713 0.7012 -5.1775 37.6739)" class="st1" cx="42.36" cy="25.01" rx="4.28" ry="6.88"/>
	
		<ellipse transform="matrix(1 -8.310326e-03 8.310326e-03 1 -0.3829 0.3338)" class="st1" cx="39.98" cy="46.24" rx="4.47" ry="3.63"/>
	
		<ellipse transform="matrix(1 -8.310326e-03 8.310326e-03 1 -0.3735 0.4775)" class="st1" cx="57.27" cy="45.19" rx="4.47" ry="2.71"/>
	
		<ellipse transform="matrix(1 -8.310326e-03 8.310326e-03 1 -0.449 0.4111)" class="st1" cx="49.24" cy="54.23" rx="2.51" ry="3.09"/>
</g>
</svg>
